<?xml version="1.0" encoding="UTF-8"?>
<!-- Generator: visioncortex VTracer 0.6.3 -->
<svg version="1.1" xmlns="http://www.w3.org/2000/svg" width="1278" height="1280">
<path d="M0 0 C1.43 -0 1.43 -0 2.88 -0.01 C3.93 -0.01 4.97 -0 6.05 -0 C7.7 -0.01 7.7 -0.01 9.38 -0.01 C13.03 -0.01 16.68 -0.01 20.33 -0.01 C22.85 -0.01 25.38 -0.01 27.9 -0.01 C33.2 -0.01 38.5 -0.01 43.8 -0 C49.93 0 56.07 0 62.2 -0.01 C68.09 -0.01 73.98 -0.01 79.87 -0.01 C82.38 -0.01 84.9 -0.01 87.41 -0.01 C90.91 -0.01 94.41 -0.01 97.91 -0 C98.96 -0 100.01 -0.01 101.09 -0.01 C102.04 -0.01 102.99 -0 103.97 0 C104.79 0 105.62 0 106.48 0 C108.48 0.13 108.48 0.13 110.48 1.13 C112.2 1.34 113.92 1.49 115.64 1.63 C116.66 1.71 117.68 1.79 118.74 1.88 C119.81 1.96 120.88 2.04 121.98 2.13 C124.1 2.29 126.21 2.46 128.33 2.63 C129.27 2.7 130.21 2.77 131.18 2.85 C133.48 3.13 133.48 3.13 135.48 4.13 C137.19 4.39 138.9 4.61 140.61 4.81 C141.65 4.93 142.68 5.06 143.75 5.18 C145.92 5.43 148.09 5.68 150.26 5.93 C155.77 6.59 161.15 7.37 166.54 8.7 C168.58 9.15 170.59 9.4 172.67 9.63 C176.48 10.13 176.48 10.13 179.23 11.06 C182.26 12.05 185.03 12.58 188.17 13.06 C194.09 14 199.73 15.48 205.48 17.13 C206.79 17.47 208.11 17.8 209.42 18.13 C210.05 18.28 210.67 18.44 211.32 18.6 C213.02 19.01 214.73 19.43 216.43 19.85 C221.53 21.1 226.51 22.43 231.48 24.13 C233.14 24.49 234.81 24.83 236.48 25.13 C236.48 25.79 236.48 26.45 236.48 27.13 C238.37 27.25 238.37 27.25 240.3 27.38 C245.16 27.9 249.37 29.39 253.9 31.19 C256.43 32.11 258.84 32.67 261.48 33.13 C261.48 33.79 261.48 34.45 261.48 35.13 C262.53 35.17 263.59 35.21 264.67 35.25 C269.88 35.9 274.12 38.18 278.8 40.46 C282.72 42.3 286.76 43.68 290.86 45.06 C297.83 47.44 304.44 50.27 311.07 53.48 C314 54.89 316.95 56.24 319.92 57.56 C325.27 59.98 330.51 62.61 335.74 65.27 C339.93 67.39 344.15 69.32 348.48 71.13 C348.48 71.79 348.48 72.45 348.48 73.13 C350.46 73.46 352.44 73.79 354.48 74.13 C354.48 74.79 354.48 75.45 354.48 76.13 C355.29 76.35 356.09 76.58 356.92 76.81 C365.11 79.83 372.48 84.9 379.86 89.5 C381.25 90.36 381.25 90.36 382.66 91.24 C388.15 94.66 393.63 98.09 399.07 101.58 C400.81 102.7 402.55 103.8 404.3 104.89 C409.9 108.4 415.25 112.09 420.48 116.13 C422.52 117.67 424.56 119.21 426.61 120.75 C427.58 121.49 428.55 122.22 429.55 122.98 C431.51 124.41 433.5 125.8 435.52 127.13 C438.43 129.09 441.1 131.19 443.8 133.44 C447.15 136.22 450.51 138.94 453.98 141.56 C458.51 145.04 462.65 148.89 466.81 152.79 C469.49 155.24 469.49 155.24 472.82 157.3 C473.7 157.9 474.58 158.51 475.48 159.13 C475.48 159.79 475.48 160.45 475.48 161.13 C476.38 161.54 476.38 161.54 477.29 161.96 C479.37 163.07 480.82 164.16 482.53 165.76 C483.41 166.58 483.41 166.58 484.31 167.42 C484.94 168.02 485.58 168.63 486.23 169.25 C487.25 170.21 487.25 170.21 488.28 171.19 C494.97 177.55 501.51 184.05 508.05 190.56 C508.56 191.08 509.08 191.59 509.61 192.12 C523.21 205.67 523.21 205.67 526.48 210.13 C526.48 210.79 526.48 211.45 526.48 212.13 C527.8 212.79 529.12 213.45 530.48 214.13 C530.48 214.79 530.48 215.45 530.48 216.13 C531.14 216.13 531.8 216.13 532.48 216.13 C533.44 217.54 534.39 218.96 535.31 220.41 C537.68 223.88 540.75 226.79 543.68 229.8 C546.28 232.55 547.71 234.45 548.48 238.13 C549.47 238.46 550.46 238.79 551.48 239.13 C552.88 240.69 552.88 240.69 554.3 242.69 C554.82 243.42 555.35 244.15 555.9 244.91 C556.42 245.64 556.94 246.37 557.48 247.13 C558.38 248.32 559.27 249.5 560.17 250.69 C571.05 265.21 581.5 279.97 591.48 295.13 C592.1 296.07 592.72 297 593.36 297.97 C597.24 303.94 600.76 310.08 604.22 316.29 C606.26 319.97 608.35 323.6 610.55 327.19 C616.99 337.86 622.46 349.01 627.76 360.28 C630.02 365.09 632.34 369.86 634.78 374.58 C638.18 381.2 640.95 387.79 643.35 394.85 C644.4 397.9 645.59 400.85 646.86 403.81 C654.23 421.22 661.68 439.92 665.42 458.5 C666.26 462.38 667.41 466.07 668.69 469.82 C671.15 476.99 672.87 483.94 674.01 491.44 C674.54 494.46 675.47 497.23 676.48 500.13 C676.82 502.46 677.16 504.79 677.48 507.13 C677.79 508.14 678.1 509.15 678.42 510.19 C679.86 514.92 680.32 519.81 680.98 524.7 C681.49 528.14 682.16 531.49 682.95 534.88 C683.13 535.62 683.3 536.36 683.48 537.13 C683.64 537.78 683.8 538.44 683.96 539.11 C685.83 547.52 686.37 556.06 687.05 564.63 C687.23 566.96 687.42 569.3 687.62 571.64 C687.74 573.08 687.85 574.53 687.96 575.97 C688.24 579.67 688.24 579.67 689.48 583.13 C689.69 585.73 689.86 588.33 689.98 590.94 C690.19 596.22 690.19 596.22 690.99 601.43 C691.59 604.73 691.61 607.86 691.61 611.22 C691.61 611.92 691.62 612.61 691.62 613.33 C691.62 615.62 691.62 617.9 691.62 620.19 C691.62 621.78 691.62 623.38 691.62 624.97 C691.62 628.31 691.62 631.65 691.61 634.99 C691.61 639.27 691.61 643.54 691.62 647.81 C691.62 651.11 691.62 654.4 691.62 657.69 C691.62 659.27 691.62 660.84 691.62 662.42 C691.62 664.62 691.62 666.83 691.61 669.03 C691.61 670.91 691.61 670.91 691.61 672.83 C691.5 675.74 691.11 678.29 690.48 681.13 C690.23 684.59 690.04 688.04 689.88 691.51 C689.59 696.92 689.59 696.92 688.48 699.13 C688.21 701.56 687.99 703.97 687.8 706.41 C687.68 707.91 687.55 709.4 687.43 710.9 C687.24 713.25 687.05 715.6 686.86 717.96 C686.18 726.46 685.41 734.8 683.48 743.13 C683.22 744.47 682.96 745.81 682.7 747.15 C682.46 748.4 682.23 749.65 681.98 750.94 C680.8 757.19 679.79 763.45 678.91 769.75 C678.48 772.13 678.48 772.13 677.48 773.13 C677.13 774.83 676.83 776.54 676.55 778.25 C675.78 782.65 674.71 786.83 673.48 791.13 C673.18 792.81 672.89 794.5 672.61 796.19 C671.43 802.99 669.45 809.52 667.48 816.13 C667.15 817.34 666.82 818.55 666.48 819.8 C665.67 822.5 664.74 824.64 663.48 827.13 C662.98 828.95 662.53 830.78 662.11 832.63 C658.24 848.56 652.11 864.18 645.66 879.24 C644.32 882.52 643.19 885.84 642.05 889.19 C640.14 894.64 637.83 899.55 634.91 904.53 C633.54 907.03 632.41 909.56 631.31 912.19 C624.59 927.95 616.61 943.15 607.7 957.78 C605.52 961.37 603.45 964.98 601.48 968.69 C597.87 975.41 593.68 981.76 589.48 988.13 C589.08 988.74 588.68 989.36 588.26 989.99 C582.58 998.64 576.71 1007.14 570.64 1015.52 C569.55 1017.03 568.47 1018.55 567.39 1020.06 C563.34 1025.72 559.08 1031.15 554.63 1036.51 C552.73 1038.83 550.91 1041.18 549.11 1043.56 C545.74 1047.95 542.03 1051.97 538.21 1055.97 C535.8 1058.53 533.83 1060.85 532.48 1064.13 C531.82 1064.13 531.16 1064.13 530.48 1064.13 C529.82 1065.45 529.16 1066.77 528.48 1068.13 C527.82 1068.13 527.16 1068.13 526.48 1068.13 C526.27 1068.66 526.06 1069.19 525.83 1069.74 C523.97 1073.04 521.45 1075.64 518.86 1078.38 C518.27 1079.01 517.67 1079.64 517.06 1080.29 C510.85 1086.83 504.48 1093.23 498.11 1099.63 C497.59 1100.14 497.08 1100.66 496.55 1101.2 C480.28 1117.53 480.28 1117.53 475.48 1119.13 C475.48 1119.79 475.48 1120.45 475.48 1121.13 C474.07 1122.08 472.65 1123.03 471.2 1123.95 C468.28 1125.95 465.84 1128.43 463.3 1130.88 C458.47 1135.43 453.52 1139.47 448.08 1143.28 C445.53 1145.1 443.1 1147.02 440.67 1149 C435.02 1153.58 429.11 1157.76 423.16 1161.94 C421.58 1163.06 420.01 1164.19 418.44 1165.32 C417.54 1165.96 416.65 1166.59 415.73 1167.25 C414.95 1167.81 414.18 1168.37 413.37 1168.95 C411.48 1170.13 411.48 1170.13 409.48 1170.13 C409.48 1170.79 409.48 1171.45 409.48 1172.13 C407.6 1173.43 405.64 1174.64 403.67 1175.81 C402.47 1176.53 401.28 1177.24 400.08 1177.96 C399.18 1178.5 399.18 1178.5 398.25 1179.05 C394.78 1181.16 391.4 1183.43 388.02 1185.68 C385.25 1187.26 382.53 1188.21 379.48 1189.13 C379.48 1189.79 379.48 1190.45 379.48 1191.13 C378.21 1191.8 378.21 1191.8 376.92 1192.48 C369.69 1196.29 369.69 1196.29 362.73 1200.56 C358.15 1203.51 353.2 1205.68 348.26 1207.97 C343.15 1210.34 338.08 1212.78 333.05 1215.31 C332.38 1215.65 331.71 1215.99 331.02 1216.33 C328.23 1217.74 325.44 1219.15 322.65 1220.56 C312.78 1225.54 302.71 1229.95 292.48 1234.13 C290.68 1234.87 290.68 1234.87 288.85 1235.63 C281.84 1238.51 274.86 1241.07 267.58 1243.17 C264.52 1244.12 261.54 1245.21 258.55 1246.35 C245.37 1251.32 231.89 1254.98 218.24 1258.42 C214.44 1259.4 210.65 1260.45 206.87 1261.51 C203.77 1262.31 200.65 1262.69 197.48 1263.13 C195.48 1263.78 193.48 1264.45 191.48 1265.13 C184.08 1267.29 176.78 1268.56 169.14 1269.43 C165.71 1269.82 162.38 1270.28 159.05 1271.19 C155.63 1272.09 152.44 1272.5 148.94 1272.83 C146.56 1273.12 144.31 1273.57 141.98 1274.09 C136.01 1275.31 130.05 1275.76 123.98 1276.19 C121.85 1276.34 119.71 1276.5 117.58 1276.66 C116.65 1276.73 115.71 1276.79 114.75 1276.86 C112.45 1277 112.45 1277 110.48 1278.13 C109.16 1278.27 107.82 1278.35 106.49 1278.41 C105.7 1278.45 104.92 1278.48 104.1 1278.52 C103.28 1278.56 102.46 1278.59 101.61 1278.63 C99.99 1278.7 98.36 1278.77 96.74 1278.85 C96.02 1278.88 95.3 1278.91 94.56 1278.94 C92.52 1279.05 92.52 1279.05 90.79 1279.63 C87.66 1280.3 84.69 1280.25 81.48 1280.26 C80.79 1280.26 80.09 1280.26 79.37 1280.26 C77.08 1280.27 74.78 1280.26 72.48 1280.26 C70.88 1280.26 69.29 1280.26 67.69 1280.26 C64.34 1280.26 60.99 1280.26 57.64 1280.26 C53.35 1280.25 49.06 1280.25 44.77 1280.26 C41.47 1280.26 38.17 1280.26 34.86 1280.26 C33.28 1280.26 31.7 1280.26 30.12 1280.26 C27.91 1280.27 25.69 1280.26 23.48 1280.26 C22.22 1280.26 20.97 1280.25 19.67 1280.25 C17.05 1280.15 14.97 1279.87 12.48 1279.13 C11.07 1279 9.65 1278.91 8.23 1278.85 C7.04 1278.79 7.04 1278.79 5.83 1278.73 C4.17 1278.66 2.52 1278.59 0.86 1278.52 C-0.32 1278.47 -0.32 1278.47 -1.52 1278.41 C-2.6 1278.36 -2.6 1278.36 -3.7 1278.32 C-5.52 1278.13 -5.52 1278.13 -7.52 1277.13 C-9.89 1276.84 -12.26 1276.61 -14.64 1276.41 C-15.34 1276.35 -16.05 1276.28 -16.77 1276.22 C-19.02 1276.02 -21.27 1275.82 -23.52 1275.63 C-26.48 1275.37 -29.43 1275.11 -32.39 1274.85 C-33.08 1274.79 -33.76 1274.73 -34.46 1274.67 C-39.29 1274.24 -39.29 1274.24 -41.52 1273.13 C-43.85 1272.78 -46.18 1272.47 -48.52 1272.19 C-53.73 1271.53 -58.86 1270.72 -64 1269.62 C-66.95 1269.04 -69.91 1268.62 -72.89 1268.19 C-90.02 1265.63 -90.02 1265.63 -92.52 1263.13 C-94.76 1262.7 -97.01 1262.31 -99.27 1261.94 C-113.78 1259.37 -127.85 1254.74 -141.87 1250.28 C-145.37 1249.17 -148.88 1248.12 -152.39 1247.06 C-156.92 1245.67 -161.28 1244.08 -165.65 1242.26 C-169.42 1240.77 -173.25 1239.45 -177.08 1238.13 C-183.03 1236.05 -188.81 1233.82 -194.52 1231.13 C-195.91 1230.5 -197.31 1229.87 -198.7 1229.25 C-199.82 1228.75 -199.82 1228.75 -200.96 1228.24 C-202.85 1227.42 -204.74 1226.62 -206.63 1225.82 C-224.6 1218.29 -241.74 1208.97 -258.8 1199.61 C-264.03 1196.76 -269.27 1193.94 -274.52 1191.13 C-274.52 1190.47 -274.52 1189.81 -274.52 1189.13 C-275.36 1188.9 -276.21 1188.67 -277.08 1188.44 C-280.48 1187.14 -282.73 1185.64 -285.6 1183.48 C-287.65 1182.03 -289.75 1180.83 -291.95 1179.63 C-295.03 1177.95 -298.08 1176.25 -301.08 1174.44 C-301.74 1174.04 -302.4 1173.65 -303.08 1173.24 C-303.56 1172.87 -304.03 1172.51 -304.52 1172.13 C-304.52 1171.47 -304.52 1170.81 -304.52 1170.13 C-305.21 1169.89 -305.89 1169.66 -306.6 1169.42 C-310.12 1167.86 -313.07 1165.77 -316.14 1163.5 C-316.76 1163.06 -317.37 1162.61 -318 1162.15 C-319.25 1161.24 -320.5 1160.33 -321.75 1159.42 C-323.33 1158.26 -324.93 1157.12 -326.52 1155.97 C-331.83 1152.16 -336.99 1148.23 -342.06 1144.12 C-343.68 1142.81 -345.3 1141.51 -346.94 1140.23 C-352.35 1136 -357.44 1131.54 -362.41 1126.81 C-364.96 1124.41 -367.27 1122.47 -370.52 1121.13 C-370.52 1120.47 -370.52 1119.81 -370.52 1119.13 C-371.11 1118.85 -371.71 1118.57 -372.33 1118.29 C-375.77 1116.46 -378.4 1113.73 -381.2 1111.06 C-381.88 1110.43 -382.55 1109.79 -383.24 1109.14 C-390.14 1102.57 -396.9 1095.85 -403.64 1089.13 C-404.19 1088.59 -404.73 1088.04 -405.29 1087.49 C-417.21 1075.61 -417.21 1075.61 -421.52 1070.13 C-421.52 1069.47 -421.52 1068.81 -421.52 1068.13 C-422.41 1067.72 -422.41 1067.72 -423.33 1067.31 C-426.39 1065.65 -428.04 1064 -429.72 1060.94 C-432 1057.37 -434.77 1054.54 -437.7 1051.5 C-442.48 1046.47 -446.78 1041.35 -450.76 1035.65 C-452.46 1033.2 -454.24 1030.85 -456.08 1028.5 C-456.64 1027.79 -457.2 1027.07 -457.77 1026.33 C-459.01 1024.76 -460.26 1023.2 -461.51 1021.64 C-462.47 1020.43 -462.47 1020.43 -463.45 1019.19 C-464.04 1018.46 -464.63 1017.73 -465.23 1016.97 C-466.52 1015.13 -466.52 1015.13 -466.52 1013.13 C-467.18 1013.13 -467.84 1013.13 -468.52 1013.13 C-469.78 1011.29 -469.78 1011.29 -471.2 1008.75 C-473.32 1005.11 -475.51 1001.62 -477.95 998.19 C-488.52 983.31 -488.52 983.31 -488.52 980.13 C-489.18 980.13 -489.84 980.13 -490.52 980.13 C-493.77 974.44 -493.77 974.44 -494.82 972.59 C-497.07 968.66 -499.32 964.73 -501.58 960.8 C-502.37 959.43 -502.37 959.43 -503.18 958.02 C-504.22 956.21 -505.26 954.4 -506.3 952.59 C-508.89 948.07 -511.37 943.54 -513.66 938.86 C-514.79 936.58 -516.02 934.35 -517.27 932.13 C-523 921.65 -528.4 911.17 -532.41 899.9 C-533.45 897.07 -533.45 897.07 -535.11 894.47 C-536.77 891.7 -537.15 889.31 -537.52 886.13 C-538.18 886.13 -538.84 886.13 -539.52 886.13 C-539.88 885.09 -540.24 884.04 -540.62 882.97 C-543.15 875.74 -545.72 868.53 -548.45 861.38 C-551.21 854.15 -553.66 846.83 -556.07 839.48 C-557.37 835.51 -558.7 831.57 -560.19 827.67 C-561.28 824.76 -561.94 822.16 -562.52 819.13 C-562.85 818.3 -563.18 817.48 -563.52 816.63 C-564.52 814.13 -564.52 814.13 -564.95 811.88 C-565.48 809.33 -566.21 807.07 -567.08 804.63 C-568.23 801.26 -568.61 798.69 -568.52 795.13 C-569.4 791.67 -570.44 788.35 -571.64 785 C-572.5 782.19 -572.6 780.04 -572.52 777.13 C-572.85 776.8 -573.18 776.47 -573.52 776.13 C-573.56 774.13 -573.56 772.13 -573.52 770.13 C-574.18 770.13 -574.84 770.13 -575.52 770.13 C-576.8 762.72 -577.77 755.65 -577.52 748.13 C-578.18 748.13 -578.84 748.13 -579.52 748.13 C-579.6 747.31 -579.69 746.5 -579.78 745.66 C-580.16 742.01 -580.56 738.35 -580.95 734.69 C-581.16 732.77 -581.16 732.77 -581.36 730.81 C-581.49 729.6 -581.63 728.38 -581.76 727.13 C-581.88 726 -582 724.88 -582.13 723.72 C-582.24 721.2 -582.24 721.2 -583.52 720.13 C-583.59 717.8 -583.51 715.49 -583.45 713.16 C-583.28 711.13 -583.28 711.13 -584.52 710.13 C-584.73 708.15 -584.89 706.17 -585.02 704.19 C-585.19 700.01 -585.19 700.01 -586.52 696.13 C-586.61 694.64 -586.64 693.14 -586.64 691.65 C-586.65 690.23 -586.65 690.23 -586.65 688.79 C-586.65 687.76 -586.65 686.72 -586.65 685.65 C-586.65 684.56 -586.65 683.47 -586.65 682.35 C-586.66 678.73 -586.65 675.12 -586.65 671.5 C-586.65 669 -586.65 666.5 -586.65 663.99 C-586.65 658.74 -586.65 653.49 -586.65 648.23 C-586.64 642.16 -586.64 636.08 -586.65 630 C-586.65 624.16 -586.65 618.32 -586.65 612.48 C-586.65 610 -586.65 607.51 -586.65 605.02 C-586.66 601.55 -586.65 598.08 -586.65 594.6 C-586.65 593.57 -586.65 592.53 -586.65 591.46 C-586.65 590.52 -586.65 589.58 -586.64 588.61 C-586.64 587.78 -586.64 586.96 -586.64 586.12 C-586.52 584.13 -586.52 584.13 -585.52 582.13 C-585.32 580.52 -585.17 578.9 -585.05 577.29 C-584.97 576.31 -584.9 575.32 -584.82 574.31 C-584.66 572.27 -584.51 570.22 -584.35 568.17 C-583.88 562.26 -583.11 556.52 -581.99 550.7 C-581.18 546.27 -580.75 541.81 -580.31 537.34 C-579.85 533.12 -579.07 529.15 -577.99 525.06 C-577.26 522.09 -576.9 519.09 -576.52 516.06 C-575.86 511.25 -575.01 506.77 -573.52 502.13 C-571.84 496.47 -570.42 490.9 -569.52 485.06 C-568.66 479.56 -567.23 474.42 -565.52 469.13 C-565.03 467.52 -564.56 465.92 -564.08 464.31 C-560.89 453.68 -557.58 443.1 -554.08 432.56 C-553.71 431.44 -553.34 430.31 -552.96 429.14 C-550.78 422.56 -548.35 416.16 -545.63 409.78 C-544.27 406.53 -543.1 403.27 -541.95 399.94 C-539.47 392.88 -536.59 386.21 -533.2 379.54 C-530.5 374.16 -528.03 368.69 -525.58 363.19 C-522.18 355.65 -518.64 348.3 -514.52 341.13 C-513.58 339.4 -512.64 337.67 -511.7 335.94 C-505.14 323.91 -498.33 312.01 -491.52 300.13 C-490.86 300.13 -490.2 300.13 -489.52 300.13 C-489.11 299.03 -489.11 299.03 -488.68 297.92 C-485.6 290.55 -480.81 284 -476.18 277.52 C-474.21 274.69 -472.42 271.78 -470.66 268.82 C-469.52 267.13 -469.52 267.13 -468.08 265.69 C-466.2 263.81 -464.82 261.77 -463.33 259.56 C-460.23 255.07 -456.92 250.8 -453.48 246.56 C-451.65 244.29 -449.86 242 -448.08 239.69 C-441.84 231.65 -435.38 223.87 -428.52 216.35 C-426.85 214.5 -425.23 212.62 -423.64 210.69 C-420.29 206.65 -420.29 206.65 -418.52 205.13 C-417.86 205.13 -417.2 205.13 -416.52 205.13 C-416.33 204.45 -416.14 203.77 -415.94 203.08 C-413.93 198.92 -410.95 196.15 -407.68 192.93 C-406.67 191.91 -406.67 191.91 -405.63 190.88 C-404.21 189.45 -402.78 188.03 -401.34 186.62 C-399.15 184.45 -396.97 182.26 -394.79 180.08 C-393.4 178.69 -392.01 177.31 -390.62 175.93 C-389.97 175.28 -389.32 174.62 -388.65 173.95 C-388.03 173.35 -387.42 172.74 -386.79 172.12 C-386.25 171.59 -385.71 171.06 -385.16 170.51 C-383.52 169.13 -383.52 169.13 -381.45 168.1 C-378.99 166.86 -377.79 165.01 -376.11 162.88 C-373.5 160.01 -370.41 157.79 -367.35 155.42 C-363.59 152.38 -360.1 149.09 -356.63 145.72 C-354.05 143.28 -352.12 141.53 -348.52 141.13 C-348.52 140.47 -348.52 139.81 -348.52 139.13 C-347.2 138.24 -345.88 137.36 -344.54 136.52 C-341.99 134.76 -339.65 132.8 -337.27 130.81 C-323.12 119.13 -323.12 119.13 -319.52 119.13 C-319.52 118.47 -319.52 117.81 -319.52 117.13 C-317.97 115.9 -317.97 115.9 -315.77 114.5 C-314.95 113.97 -314.12 113.44 -313.28 112.9 C-312.37 112.32 -311.46 111.73 -310.52 111.13 C-308.54 109.8 -306.56 108.46 -304.58 107.13 C-289.56 97.13 -289.56 97.13 -286.52 97.13 C-286.52 96.47 -286.52 95.81 -286.52 95.13 C-284.7 93.86 -284.7 93.86 -281.95 92.31 C-280.86 91.7 -279.77 91.08 -278.65 90.44 C-278.01 90.09 -277.37 89.73 -276.71 89.36 C-274.2 87.95 -271.7 86.52 -269.2 85.09 C-245.42 71.54 -221.3 58.96 -195.95 48.56 C-195.25 48.27 -194.55 47.98 -193.82 47.68 C-189.69 45.98 -185.54 44.38 -181.35 42.82 C-178.83 41.87 -176.36 40.81 -173.89 39.75 C-167.86 37.23 -161.77 34.97 -155.59 32.84 C-154.13 32.34 -152.67 31.83 -151.22 31.32 C-137.48 26.53 -123.63 22.64 -109.52 19.13 C-108.36 18.83 -107.19 18.53 -106 18.23 C-99.57 16.59 -93.11 15.08 -86.65 13.57 C-85.97 13.41 -85.29 13.26 -84.6 13.09 C-83.92 12.93 -83.24 12.78 -82.55 12.61 C-80.51 12.13 -78.49 11.6 -76.47 11.07 C-72.7 10.12 -68.94 9.58 -65.08 9.13 C-60.93 8.61 -56.89 8.06 -52.83 7.06 C-48.42 5.99 -44.03 5.72 -39.51 5.47 C-36.45 5.21 -36.45 5.21 -33.39 4.16 C-28.29 2.61 -23 2.45 -17.7 2.06 C-15.64 1.91 -13.57 1.75 -11.5 1.59 C-10.59 1.53 -9.68 1.46 -8.74 1.39 C-5.57 1.01 -3.32 0 0 0 Z M-4.52 1.13 C-0.52 2.13 -0.52 2.13 -0.52 2.13 Z M-585.52 584.13 C-584.52 588.13 -584.52 588.13 -584.52 588.13 Z M-585.52 692.13 C-584.52 696.13 -584.52 696.13 -584.52 696.13 Z " fill="#007637" transform="translate(586.5169677734375,-0.126983642578125)"/>
<path d="M0 0 C1.47 -0 2.95 -0.01 4.42 -0.01 C7.49 -0.02 10.56 -0.01 13.63 0.01 C17.53 0.03 21.42 0.02 25.32 -0 C28.36 -0.02 31.4 -0.01 34.44 -0 C35.87 -0 37.31 -0 38.74 -0.01 C55.24 -0.1 67.36 3.83 79.38 15.09 C98.54 34.94 102.8 61.69 102.52 88.11 C102 109.88 95.56 130.22 80.55 146.46 C70.81 155.48 59.61 159.63 46.46 159.68 C45.47 159.68 45.47 159.68 44.46 159.69 C42.3 159.7 40.14 159.7 37.98 159.7 C36.47 159.7 34.96 159.71 33.44 159.71 C30.27 159.72 27.1 159.72 23.93 159.72 C19.89 159.72 15.85 159.73 11.81 159.75 C8.68 159.76 5.56 159.76 2.43 159.76 C0.94 159.76 -0.55 159.77 -2.04 159.77 C-19.36 159.86 -32.31 157.13 -45.34 144.97 C-50.62 139.48 -54.67 134.39 -57.81 127.41 C-58.15 126.66 -58.49 125.92 -58.84 125.15 C-70.4 99.31 -70.87 69.91 -61.09 43.4 C-54.75 27.12 -44.62 12.45 -28.69 4.53 C-19.14 0.7 -10.2 -0.07 0 0 Z " fill="#FAFCFC" transform="translate(655.6875,561.46875)"/>
<path d="M0 0 C0.92 -0.01 1.85 -0.02 2.8 -0.03 C5.87 -0.05 8.94 -0.06 12.01 -0.06 C14.15 -0.07 16.29 -0.08 18.43 -0.09 C22.92 -0.11 27.42 -0.12 31.92 -0.12 C37.64 -0.12 43.37 -0.16 49.1 -0.21 C53.53 -0.24 57.95 -0.24 62.38 -0.25 C64.49 -0.25 66.6 -0.26 68.71 -0.28 C82.37 -0.41 95.23 -0.35 106.53 8.49 C118.24 20.1 123.25 33.81 123.34 49.99 C123.37 51.41 123.37 51.41 123.4 52.85 C123.45 61.52 121.9 68.99 117.09 76.31 C115.21 79.88 115.21 79.88 115.78 83.74 C116.68 85.41 117.62 87.07 118.6 88.7 C124.81 99.58 124.6 114.65 121.97 126.62 C118.61 137.99 113.49 147.91 103.09 154.09 C94.88 158.35 88.57 159.46 79.45 159.44 C78 159.44 78 159.44 76.53 159.44 C73.35 159.45 70.16 159.44 66.98 159.44 C64.77 159.44 62.56 159.44 60.35 159.44 C55.72 159.44 51.1 159.44 46.47 159.44 C40.53 159.43 34.58 159.43 28.64 159.44 C24.08 159.44 19.52 159.44 14.96 159.44 C12.76 159.44 10.57 159.44 8.38 159.44 C5.32 159.45 2.27 159.44 -0.79 159.44 C-1.7 159.44 -2.62 159.44 -3.56 159.44 C-9.79 159.42 -9.79 159.42 -10.91 158.31 C-11.01 156.3 -11.04 154.29 -11.04 152.28 C-11.05 150.97 -11.05 149.66 -11.06 148.3 C-11.06 146.84 -11.06 145.37 -11.05 143.9 C-11.06 142.37 -11.06 140.84 -11.06 139.3 C-11.07 135.13 -11.08 130.95 -11.08 126.77 C-11.08 123.29 -11.08 119.81 -11.08 116.32 C-11.09 108.11 -11.1 99.9 -11.09 91.69 C-11.09 83.21 -11.1 74.72 -11.12 66.24 C-11.13 58.97 -11.14 51.7 -11.14 44.42 C-11.14 40.07 -11.14 35.73 -11.15 31.38 C-11.16 27.29 -11.16 23.2 -11.15 19.11 C-11.15 17.61 -11.16 16.11 -11.16 14.6 C-11.17 12.56 -11.16 10.51 -11.16 8.46 C-11.16 7.32 -11.16 6.17 -11.16 4.99 C-10.57 -1.38 -5.02 0 0 0 Z " fill="#FAFCFC" transform="translate(407.9091796875,561.693603515625)"/>
<path d="M0 0 C9.83 10.07 13.42 25.52 17.68 38.61 C18.16 40.07 18.65 41.54 19.13 43.01 C19.88 45.28 20.63 47.56 21.37 49.83 C22.77 54.11 24.19 58.38 25.63 62.64 C31.44 79.87 36.83 97.22 42.19 114.6 C43.44 118.64 44.69 122.69 45.95 126.74 C46.52 128.59 47.09 130.45 47.66 132.3 C49.85 139.35 52.21 146.32 54.8 153.23 C49.45 153.21 44.09 153.16 38.73 153.08 C36.91 153.05 35.09 153.04 33.27 153.03 C30.65 153.03 28.03 152.98 25.41 152.94 C24.59 152.94 23.78 152.95 22.94 152.95 C20.63 152.89 20.63 152.89 16.8 152.23 C14.95 150.19 14.95 150.19 13.8 147.23 C13.46 146.34 13.46 146.34 13.11 145.43 C12.33 143.34 11.62 141.24 10.92 139.12 C10.66 138.35 10.4 137.59 10.13 136.8 C9.31 134.36 8.49 131.92 7.68 129.48 C6.86 127.03 6.03 124.57 5.2 122.12 C4.69 120.6 4.18 119.08 3.67 117.55 C2.72 114.12 2.72 114.12 0.8 111.23 C-1.04 111.14 -2.88 111.11 -4.72 111.12 C-5.91 111.12 -7.09 111.12 -8.3 111.12 C-10.23 111.12 -10.23 111.12 -12.2 111.13 C-13.51 111.13 -14.82 111.14 -16.16 111.14 C-19.65 111.14 -23.13 111.15 -26.61 111.16 C-30.17 111.17 -33.72 111.18 -37.27 111.18 C-44.25 111.19 -51.22 111.21 -58.2 111.23 C-58.38 112.01 -58.57 112.79 -58.76 113.59 C-60.19 119.41 -61.7 125.1 -63.68 130.75 C-64.07 131.89 -64.47 133.04 -64.88 134.22 C-65.38 135.63 -65.87 137.03 -66.38 138.48 C-67.97 143.02 -69.56 147.56 -71.2 152.23 C-83.41 152.23 -95.62 152.23 -108.2 152.23 C-109.41 147.38 -108.28 144.33 -106.8 139.74 C-106.54 138.9 -106.28 138.06 -106.01 137.19 C-105.14 134.43 -104.26 131.67 -103.38 128.92 C-102.78 126.99 -102.17 125.06 -101.56 123.13 C-100.06 118.35 -98.54 113.57 -97.01 108.8 C-96.29 106.52 -95.57 104.25 -94.85 101.97 C-89.81 85.98 -84.5 70.09 -79.12 54.21 C-78.44 52.18 -77.75 50.15 -77.06 48.13 C-73.51 37.6 -69.86 27.1 -66.02 16.68 C-65.71 15.81 -65.4 14.95 -65.08 14.06 C-61.42 4.33 -56.18 0.07 -46.76 -4.29 C-32.73 -10.12 -12.31 -9.92 0 0 Z " fill="#FAFCFC" transform="translate(334.1953125,568.76953125)"/>
<path d="M0 0 C2.11 0 4.22 0.01 6.33 0.01 C10.72 0.02 15.11 0.04 19.5 0.07 C25.14 0.11 30.78 0.13 36.42 0.14 C41.8 0.15 47.18 0.17 52.56 0.19 C54.11 0.19 54.11 0.19 55.68 0.2 C58.57 0.21 61.47 0.23 64.36 0.25 C65.22 0.25 66.09 0.25 66.98 0.26 C72.87 0.31 72.87 0.31 73.98 1.43 C74.07 3.8 74.1 6.15 74.08 8.52 C74.08 9.59 74.08 9.59 74.08 10.67 C74.07 12.94 74.06 15.22 74.05 17.49 C74.04 19.03 74.04 20.56 74.03 22.1 C74.02 25.88 74 29.65 73.98 33.43 C72.44 33.43 72.44 33.43 70.86 33.44 C61.1 33.5 51.35 33.57 41.59 33.66 C36.58 33.71 31.57 33.75 26.55 33.77 C21.71 33.8 16.87 33.84 12.02 33.89 C10.18 33.91 8.34 33.92 6.49 33.92 C3.9 33.93 1.31 33.96 -1.28 33.99 C-2.41 33.99 -2.41 33.99 -3.57 33.99 C-8.95 34.08 -14.19 34.92 -19.02 37.43 C-20.64 40.37 -20.64 40.37 -21.02 43.43 C-21.51 44.42 -21.51 44.42 -22.02 45.43 C-22.36 50.68 -22.59 54.25 -19.02 58.43 C-13.17 62.52 -6.82 61.83 0.02 61.8 C2.63 61.81 5.24 61.83 7.85 61.85 C11.94 61.86 16.03 61.86 20.13 61.86 C24.09 61.86 28.05 61.89 32.02 61.92 C33.22 61.91 34.43 61.91 35.67 61.9 C47.13 62 58.58 64.1 66.98 72.43 C80.4 87.08 81.87 102.44 81.18 121.53 C80.39 133.5 74.76 143.16 66.11 151.3 C57.43 158.44 48.32 159.58 37.43 159.56 C36.02 159.56 36.02 159.56 34.57 159.56 C31.46 159.56 28.36 159.56 25.25 159.56 C23.09 159.56 20.93 159.56 18.77 159.56 C14.24 159.56 9.72 159.56 5.2 159.56 C-0.61 159.55 -6.41 159.55 -12.22 159.56 C-16.68 159.56 -21.14 159.56 -25.6 159.56 C-27.74 159.56 -29.88 159.56 -32.02 159.56 C-35.01 159.56 -37.99 159.56 -40.98 159.56 C-42.32 159.56 -42.32 159.56 -43.68 159.56 C-49.79 159.54 -49.79 159.54 -52.02 158.43 C-52.09 154.21 -52.14 149.99 -52.18 145.77 C-52.2 144.34 -52.22 142.9 -52.24 141.47 C-52.28 139.41 -52.3 137.34 -52.31 135.28 C-52.33 133.42 -52.33 133.42 -52.36 131.52 C-52.02 128.43 -52.02 128.43 -51.02 126.75 C-47.81 124.63 -44.38 125.03 -40.66 125.07 C-39.81 125.07 -38.96 125.07 -38.08 125.07 C-36.23 125.06 -34.37 125.07 -32.52 125.08 C-29.59 125.09 -26.67 125.08 -23.74 125.07 C-15.41 125.04 -7.08 125.05 1.25 125.07 C6.34 125.08 11.44 125.06 16.53 125.04 C18.47 125.03 20.41 125.03 22.36 125.05 C25.07 125.07 27.78 125.06 30.5 125.04 C31.3 125.05 32.11 125.06 32.94 125.08 C36.87 125.02 38.58 124.82 41.45 122.01 C44.68 116.57 44.57 111.69 43.98 105.43 C42.3 101.8 41.28 100.07 37.7 98.29 C34.71 97.34 32.31 97.17 29.18 97.15 C28.03 97.14 26.88 97.13 25.7 97.12 C24.47 97.12 23.24 97.12 21.98 97.12 C19.35 97.09 16.73 97.07 14.11 97.04 C9.99 97.01 5.87 96.99 1.75 96.97 C-0.94 96.96 -3.63 96.94 -6.33 96.91 C-8.85 96.88 -11.38 96.87 -13.9 96.87 C-27.99 96.71 -37.44 93.28 -47.86 83.73 C-57.25 73.77 -59.87 59.63 -60.02 46.43 C-59.11 32.9 -53.49 19.35 -43.45 10.05 C-42.65 9.51 -41.84 8.98 -41.02 8.43 C-40.19 7.77 -39.37 7.11 -38.52 6.43 C-26.79 -0.99 -13.29 -0.12 0 0 Z " fill="#FAFCFC" transform="translate(829.015625,561.57421875)"/>
<path d="M0 0 C0.81 -0 1.62 -0.01 2.46 -0.01 C3.34 -0.01 4.22 -0 5.13 -0 C6.07 -0 7 -0.01 7.97 -0.01 C11.06 -0.01 14.15 -0.01 17.24 -0.01 C19.38 -0.01 21.53 -0.01 23.67 -0.01 C28.16 -0.01 32.65 -0.01 37.14 -0 C42.91 0 48.69 -0 54.46 -0.01 C58.88 -0.01 63.31 -0.01 67.73 -0.01 C69.86 -0.01 71.99 -0.01 74.12 -0.01 C77.09 -0.01 80.05 -0.01 83.02 -0 C83.91 -0 84.79 -0.01 85.71 -0.01 C91.77 0.01 91.77 0.01 92.88 1.13 C92.97 3.5 93 5.85 92.98 8.22 C92.98 9.29 92.98 9.29 92.97 10.37 C92.97 12.65 92.96 14.92 92.94 17.19 C92.94 18.73 92.93 20.26 92.93 21.8 C92.92 25.58 92.9 29.35 92.88 33.13 C91.33 33.13 91.33 33.13 89.75 33.14 C79.98 33.18 70.21 33.23 60.44 33.31 C55.42 33.35 50.4 33.38 45.37 33.4 C40.52 33.41 35.67 33.45 30.82 33.5 C28.98 33.51 27.13 33.52 25.28 33.52 C22.69 33.52 20.09 33.55 17.5 33.58 C16.74 33.58 15.99 33.57 15.21 33.57 C9.77 33.67 5.38 35 0.88 38.13 C-1.68 41.92 -2.94 45.55 -3.12 50.13 C-2.25 54.21 -1.39 57.21 2.07 59.72 C5.31 61.34 7.39 61.5 11 61.51 C12.21 61.52 13.42 61.53 14.67 61.54 C15.97 61.54 17.27 61.54 18.62 61.53 C19.98 61.54 21.34 61.55 22.7 61.57 C27.01 61.6 31.32 61.62 35.63 61.63 C40.62 61.64 45.6 61.66 50.59 61.71 C52.57 61.72 54.55 61.72 56.54 61.71 C68.93 61.81 78.35 64.78 87.51 73.31 C98.8 85.22 101.33 99.87 101.1 115.73 C100.62 129.5 95.98 140.8 86.19 150.42 C77.85 158.14 69.16 159.28 58.24 159.26 C56.79 159.26 56.79 159.26 55.32 159.26 C52.14 159.27 48.95 159.26 45.77 159.26 C43.56 159.26 41.35 159.26 39.14 159.26 C34.51 159.26 29.89 159.26 25.26 159.26 C19.32 159.25 13.37 159.25 7.43 159.26 C2.87 159.26 -1.69 159.26 -6.25 159.26 C-8.45 159.26 -10.64 159.26 -12.83 159.26 C-15.89 159.27 -18.94 159.26 -22 159.26 C-22.91 159.26 -23.83 159.26 -24.77 159.26 C-31 159.24 -31 159.24 -32.12 158.13 C-32.34 153.73 -32.3 149.32 -32.3 144.92 C-32.31 142.7 -32.32 140.49 -32.34 138.27 C-32.35 136.87 -32.35 135.47 -32.35 134.07 C-32.35 132.79 -32.36 131.5 -32.36 130.18 C-32.12 127.13 -32.12 127.13 -30.12 125.13 C-27.31 124.94 -24.6 124.87 -21.79 124.89 C-20.92 124.89 -20.06 124.88 -19.17 124.88 C-17.3 124.88 -15.42 124.88 -13.55 124.88 C-10.58 124.89 -7.61 124.88 -4.65 124.87 C3.79 124.83 12.23 124.81 20.66 124.82 C25.82 124.83 30.98 124.81 36.14 124.78 C38.1 124.77 40.07 124.77 42.04 124.78 C44.79 124.79 47.54 124.78 50.29 124.75 C51.1 124.77 51.92 124.78 52.76 124.79 C56.65 124.73 58.48 124.5 61.39 121.81 C63.36 118.26 63.38 115.67 63.32 111.63 C63.32 110.34 63.32 109.05 63.31 107.72 C62.86 103.96 62.23 102.07 59.88 99.13 C56.56 96.98 53.82 96.88 49.91 96.87 C48.1 96.86 48.1 96.86 46.26 96.85 C44.96 96.85 43.66 96.85 42.31 96.85 C40.96 96.84 39.6 96.83 38.24 96.82 C32.49 96.78 26.73 96.75 20.98 96.75 C17.45 96.74 13.93 96.72 10.4 96.68 C8.43 96.67 6.45 96.67 4.48 96.68 C-7.22 96.55 -16.27 93.88 -25.12 86.13 C-25.72 85.64 -26.33 85.15 -26.95 84.64 C-34.53 77.96 -39.13 67.12 -40.12 57.13 C-41.11 41.1 -37.83 26.83 -28.38 13.71 C-21.63 6.23 -10.17 0.01 0 0 Z " fill="#FAFCFC" transform="translate(1115.1188201904297,561.8730163574219)"/>
<path d="M0 0 C1.91 0 3.82 0 5.73 0.01 C9.71 0.01 13.69 0.02 17.67 0.05 C22.78 0.08 27.89 0.09 33 0.09 C36.93 0.09 40.86 0.1 44.79 0.12 C46.68 0.12 48.57 0.13 50.45 0.13 C53.07 0.14 55.69 0.15 58.31 0.17 C59.1 0.17 59.88 0.17 60.69 0.17 C66.03 0.21 66.03 0.21 67.15 1.33 C67.24 3.7 67.26 6.05 67.25 8.43 C67.24 9.49 67.24 9.49 67.24 10.57 C67.24 12.85 67.22 15.12 67.21 17.39 C67.21 18.93 67.2 20.46 67.2 22 C67.19 25.78 67.17 29.55 67.15 33.33 C66.19 33.33 65.23 33.34 64.25 33.35 C55.2 33.4 46.15 33.48 37.1 33.56 C32.45 33.61 27.8 33.65 23.15 33.67 C18.66 33.7 14.17 33.74 9.67 33.79 C7.96 33.81 6.25 33.82 4.55 33.83 C-9.62 33.84 -9.62 33.84 -22.66 39.02 C-28.3 44.98 -31.02 53.2 -30.85 61.33 C-29.64 61.34 -28.43 61.35 -27.18 61.36 C-15.77 61.46 -4.37 61.56 7.04 61.67 C12.9 61.72 18.77 61.78 24.63 61.83 C30.28 61.87 35.94 61.93 41.59 61.98 C43.75 62 45.92 62.02 48.08 62.04 C51.1 62.06 54.11 62.09 57.13 62.12 C58.03 62.13 58.94 62.13 59.87 62.14 C66.03 62.21 66.03 62.21 67.15 63.33 C67.24 65.78 67.26 68.2 67.25 70.64 C67.24 71.74 67.24 71.74 67.24 72.86 C67.24 75.2 67.22 77.55 67.21 79.89 C67.21 81.48 67.2 83.06 67.2 84.65 C67.19 88.54 67.17 92.43 67.15 96.33 C65.94 96.34 64.72 96.35 63.47 96.36 C52.07 96.46 40.66 96.56 29.26 96.67 C23.39 96.72 17.53 96.78 11.67 96.83 C6.01 96.87 0.36 96.93 -5.3 96.98 C-7.46 97 -9.62 97.02 -11.78 97.04 C-14.8 97.06 -17.82 97.09 -20.83 97.12 C-21.74 97.13 -22.64 97.13 -23.57 97.14 C-27.53 96.8 -27.53 96.8 -30.85 98.33 C-30.98 100.23 -31.03 102.14 -31.06 104.04 C-31.08 105.26 -31.1 106.48 -31.12 107.74 C-31.13 109.08 -31.15 110.43 -31.17 111.77 C-31.19 113.14 -31.21 114.5 -31.23 115.87 C-31.29 119.47 -31.34 123.07 -31.38 126.67 C-31.43 130.35 -31.49 134.02 -31.54 137.69 C-31.65 144.9 -31.75 152.12 -31.85 159.33 C-36.68 159.35 -41.5 159.37 -46.32 159.38 C-47.97 159.39 -49.61 159.39 -51.25 159.4 C-53.61 159.42 -55.96 159.42 -58.32 159.43 C-59.05 159.43 -59.79 159.44 -60.55 159.44 C-62.32 159.44 -64.09 159.39 -65.85 159.33 C-67.72 157.46 -66.98 154.77 -67 152.28 C-67 151.41 -67 150.54 -67 149.64 C-67 148.73 -67 147.82 -67.01 146.88 C-67.02 143.84 -67.02 140.8 -67.02 137.76 C-67.02 135.64 -67.03 133.53 -67.03 131.41 C-67.04 126.96 -67.04 122.51 -67.04 118.06 C-67.04 112.39 -67.05 106.73 -67.07 101.06 C-67.08 96.68 -67.08 92.3 -67.08 87.92 C-67.08 85.84 -67.09 83.75 -67.09 81.66 C-67.18 57.07 -65.13 32.31 -47.6 13.33 C-33.99 0.74 -17.48 -0.12 0 0 Z " fill="#FAFCFC" transform="translate(148.8515625,561.671875)"/>
<path d="M0 0 C5.26 -0.27 10.53 -0.47 15.8 -0.6 C17.59 -0.66 19.37 -0.73 21.16 -0.83 C35.97 -1.6 35.97 -1.6 40.85 2.25 C42.92 5.07 44.49 7.84 46 11 C46.77 12.23 47.56 13.45 48.37 14.66 C49.39 16.34 49.39 16.34 50.44 18.06 C55.84 26.87 61.52 35.49 67.2 44.13 C67.91 45.2 68.61 46.28 69.34 47.39 C69.97 48.35 70.61 49.31 71.26 50.3 C73 53 73 53 74.53 55.8 C75.88 58.35 75.88 58.35 79.19 58.81 C80.12 58.87 81.04 58.94 82 59 C87.1 52.02 91.71 44.78 96.3 37.46 C117.86 3.14 117.86 3.14 121 0 C123.72 -0.1 126.41 -0.14 129.12 -0.13 C129.94 -0.13 130.75 -0.13 131.59 -0.14 C133.32 -0.14 135.05 -0.13 136.77 -0.13 C139.42 -0.13 142.07 -0.13 144.72 -0.14 C146.4 -0.14 148.07 -0.13 149.75 -0.13 C150.54 -0.13 151.34 -0.14 152.16 -0.14 C157.77 -0.11 157.77 -0.11 160 1 C159.56 6.34 156.59 9.98 153.62 14.25 C152.52 15.87 151.42 17.5 150.31 19.12 C149.75 19.94 149.2 20.76 148.62 21.61 C146.24 25.12 143.93 28.68 141.62 32.25 C141.18 32.94 140.74 33.62 140.28 34.33 C135.94 41.07 131.64 47.85 127.34 54.62 C122.42 62.36 117.44 70.06 112.43 77.74 C111.92 78.55 111.42 79.36 110.9 80.19 C109.41 82.39 107.91 84.32 106.2 86.33 C95.95 99.12 96.48 112.21 96.78 128.05 C96.83 131.44 96.82 134.83 96.82 138.21 C96.82 144.81 96.89 151.4 97 158 C92.03 158.02 87.07 158.04 82.1 158.05 C80.41 158.06 78.72 158.07 77.03 158.08 C74.6 158.09 72.18 158.09 69.75 158.1 C68.61 158.11 68.61 158.11 67.45 158.11 C65.63 158.11 63.82 158.06 62 158 C61 157 61 157 60.93 154.81 C60.95 153.84 60.98 152.88 61 151.88 C61.11 146.34 61.18 140.81 61.2 135.27 C61.22 131.92 61.27 128.58 61.35 125.23 C61.8 107.11 60.14 95.19 48.55 80.94 C46.55 78.43 44.86 75.78 43.2 73.04 C42.68 72.23 42.17 71.42 41.64 70.59 C41.14 69.8 40.64 69 40.12 68.19 C35.25 60.5 30.31 52.86 25.31 45.25 C20.31 37.62 15.43 29.93 10.74 22.1 C7.47 16.69 3.97 11.51 0.27 6.38 C-1 4 -1 4 -0.58 1.85 C-0.39 1.24 -0.2 0.63 0 0 Z " fill="#FAFCFC" transform="translate(909,563)"/>
<path d="M0 0 C0.85 -0.01 1.7 -0.03 2.57 -0.04 C3.48 -0.05 4.39 -0.05 5.33 -0.06 C6.28 -0.07 7.22 -0.08 8.2 -0.09 C10.21 -0.1 12.21 -0.11 14.22 -0.12 C16.26 -0.13 18.29 -0.15 20.33 -0.18 C23.29 -0.22 26.25 -0.24 29.2 -0.25 C30.1 -0.27 31 -0.28 31.93 -0.3 C38.97 -0.28 46.01 1.06 51.52 5.76 C61.72 16.55 64.24 31.72 64.1 45.99 C64.1 47.12 64.09 48.26 64.08 49.43 C63.79 64.51 60.34 77.69 49.7 88.77 C43.87 92.8 36.97 92.47 30.17 92.44 C29.17 92.44 28.18 92.45 27.15 92.45 C25.06 92.45 22.96 92.45 20.87 92.44 C17.68 92.43 14.48 92.44 11.29 92.45 C9.25 92.45 7.21 92.45 5.17 92.44 C4.22 92.45 3.27 92.45 2.29 92.45 C-6.6 92.39 -12.57 90.94 -19.19 84.7 C-29.64 72.4 -31.42 55.06 -30.55 39.55 C-29.43 27.23 -25.34 13.97 -16.33 5.18 C-11.13 1.94 -6.15 0.08 0 0 Z " fill="#007637" transform="translate(656.33447265625,594.822998046875)"/>
<path d="M0 0 C1.03 0.01 1.03 0.01 2.08 0.02 C2.79 0.02 3.49 0.02 4.22 0.02 C5.71 0.03 7.2 0.03 8.69 0.05 C10.98 0.06 13.27 0.07 15.55 0.07 C17 0.07 18.45 0.08 19.89 0.08 C20.93 0.09 20.93 0.09 21.98 0.09 C26.8 0.14 26.8 0.14 27.92 1.25 C28.02 3.29 28.04 5.33 28.04 7.37 C28.04 8.02 28.04 8.66 28.04 9.33 C28.04 11.51 28.04 13.69 28.03 15.87 C28.03 17.43 28.03 18.98 28.03 20.54 C28.03 24.78 28.03 29.02 28.02 33.26 C28.02 37.68 28.01 42.11 28.01 46.54 C28.01 54.92 28 63.31 27.99 71.69 C27.98 81.24 27.98 90.79 27.97 100.33 C27.96 119.97 27.94 139.61 27.92 159.25 C23.1 159.28 18.27 159.3 13.45 159.31 C11.81 159.31 10.16 159.32 8.52 159.33 C6.17 159.34 3.81 159.35 1.46 159.35 C0.72 159.36 -0.02 159.36 -0.78 159.37 C-2.55 159.37 -4.31 159.31 -6.08 159.25 C-7.89 157.44 -7.21 154.66 -7.21 152.22 C-7.22 150.91 -7.22 149.6 -7.23 148.25 C-7.23 146.78 -7.23 145.32 -7.23 143.85 C-7.23 142.32 -7.23 140.78 -7.24 139.25 C-7.24 135.07 -7.25 130.89 -7.25 126.72 C-7.25 123.23 -7.25 119.75 -7.26 116.27 C-7.26 108.06 -7.27 99.85 -7.27 91.64 C-7.26 83.15 -7.28 74.67 -7.29 66.19 C-7.3 58.91 -7.31 51.64 -7.31 44.37 C-7.31 40.02 -7.31 35.67 -7.32 31.32 C-7.33 27.24 -7.33 23.15 -7.32 19.06 C-7.32 17.56 -7.33 16.05 -7.33 14.55 C-7.34 12.5 -7.33 10.45 -7.33 8.41 C-7.33 7.26 -7.33 6.11 -7.33 4.93 C-6.87 -0.02 -4.41 0.02 0 0 Z " fill="#FAFCFC" transform="translate(552.0798492431641,561.7477569580078)"/>
<path d="M0 0 C1.5 -0.01 1.5 -0.01 3.03 -0.03 C4.12 -0.02 5.2 -0.02 6.31 -0.01 C7.98 -0.01 7.98 -0.01 9.69 -0.02 C12.04 -0.02 14.4 -0.02 16.76 -0 C20.36 0.01 23.96 -0 27.56 -0.02 C29.85 -0.02 32.15 -0.02 34.44 -0.01 C35.51 -0.02 36.59 -0.02 37.69 -0.03 C44.63 0.04 49.35 0.66 54.45 5.76 C56.91 11.26 56.96 16.47 56.07 22.39 C54.71 25.24 53.56 26.3 51.07 28.39 C48.03 29.4 45.99 29.51 42.81 29.52 C41.2 29.52 41.2 29.52 39.55 29.53 C38.39 29.53 37.23 29.52 36.04 29.52 C34.85 29.52 33.66 29.52 32.43 29.52 C29.92 29.52 27.4 29.52 24.89 29.52 C21.02 29.51 17.16 29.52 13.3 29.52 C10.86 29.52 8.42 29.52 5.98 29.52 C4.81 29.52 3.65 29.53 2.46 29.53 C0.85 29.52 0.85 29.52 -0.79 29.52 C-1.74 29.52 -2.68 29.52 -3.66 29.52 C-5.93 29.39 -5.93 29.39 -7.93 28.39 C-8.01 24.28 -8.07 20.18 -8.11 16.08 C-8.14 14.91 -8.16 13.74 -8.19 12.54 C-8.21 10.86 -8.21 10.86 -8.22 9.15 C-8.24 8.12 -8.25 7.09 -8.27 6.02 C-7.93 3.39 -7.93 3.39 -6.71 1.75 C-4.36 -0.04 -2.94 0.01 0 0 Z " fill="#007637" transform="translate(437.927001953125,658.61181640625)"/>
<path d="M0 0 C0.98 -0.01 1.96 -0.02 2.96 -0.03 C4.02 -0.02 5.08 -0.02 6.17 -0.01 C7.25 -0.01 8.34 -0.02 9.46 -0.02 C11.77 -0.02 14.08 -0.02 16.38 -0 C19.9 0.01 23.42 -0 26.94 -0.02 C29.18 -0.02 31.42 -0.02 33.67 -0.01 C34.71 -0.02 35.76 -0.02 36.84 -0.03 C43.96 0.04 49.31 0.59 54.62 5.76 C56.99 11.26 57.07 16.49 56.18 22.39 C54.56 25.67 52.5 27.73 49.18 29.39 C47.4 29.48 45.61 29.52 43.83 29.52 C42.71 29.52 41.59 29.52 40.44 29.53 C39.23 29.53 38.02 29.52 36.77 29.52 C34.91 29.52 34.91 29.52 33.02 29.52 C29.73 29.52 26.43 29.52 23.14 29.52 C21.12 29.51 19.1 29.52 17.07 29.52 C13.2 29.52 9.33 29.52 5.46 29.52 C4.24 29.52 3.03 29.53 1.78 29.53 C0.67 29.52 -0.45 29.52 -1.6 29.52 C-2.58 29.52 -3.57 29.52 -4.59 29.52 C-6.82 29.39 -6.82 29.39 -7.82 28.39 C-8.1 24.27 -8.05 20.14 -8.07 16.01 C-8.09 14.85 -8.11 13.69 -8.13 12.49 C-8.14 11.38 -8.14 10.26 -8.15 9.11 C-8.16 8.09 -8.17 7.06 -8.18 6.01 C-7.49 0.96 -4.75 0.01 0 0 Z " fill="#007637" transform="translate(437.8193359375,594.61181640625)"/>
<path d="M0 0 C3.75 9.69 7.27 19.46 10.69 29.28 C11.14 30.59 11.61 31.9 12.07 33.21 C12.73 35.08 13.37 36.96 14.02 38.83 C14.4 39.92 14.78 41.01 15.18 42.14 C16 45 16 45 16 49 C4.45 49 -7.1 49 -19 49 C-20.37 44.9 -18.96 42.08 -17.61 38.15 C-17.36 37.37 -17.1 36.6 -16.83 35.8 C-16.28 34.16 -15.73 32.52 -15.17 30.89 C-14.32 28.41 -13.49 25.93 -12.67 23.44 C-4.8 0 -4.8 0 0 0 Z " fill="#007637" transform="translate(308,597)"/>
<path d="M0 0 C0.33 0 0.66 0 1 0 C1 1.98 1 3.96 1 6 C0.67 6 0.34 6 0 6 C0 4.02 0 2.04 0 0 Z " fill="#000100" transform="translate(1275,699)"/>
<path d="M0 0 C0.33 0 0.66 0 1 0 C1 1.98 1 3.96 1 6 C0.67 6 0.34 6 0 6 C0 4.02 0 2.04 0 0 Z " fill="#000100" transform="translate(1275,575)"/>
<path d="M0 0 C1.65 0 3.3 0 5 0 C5 0.33 5 0.66 5 1 C3.35 1 1.7 1 0 1 C0 0.67 0 0.34 0 0 Z " fill="#000100" transform="translate(699,1277)"/>
<path d="M0 0 C1.65 0 3.3 0 5 0 C5 0.33 5 0.66 5 1 C3.35 1 1.7 1 0 1 C0 0.67 0 0.34 0 0 Z " fill="#000100" transform="translate(574,1277)"/>
<path d="M0 0 C3 1 3 1 3 1 Z " fill="#000100" transform="translate(750,1270)"/>
<path d="M0 0 C3 1 3 1 3 1 Z " fill="#000100" transform="translate(525,1270)"/>
<path d="M0 0 C3 1 3 1 3 1 Z " fill="#000100" transform="translate(784,1263)"/>
<path d="M0 0 C3 1 3 1 3 1 Z " fill="#000100" transform="translate(491,1263)"/>
<path d="" fill="#000100" transform="translate(0,0)"/>
<path d="" fill="#000100" transform="translate(0,0)"/>
<path d="" fill="#000100" transform="translate(0,0)"/>
<path d="" fill="#000100" transform="translate(0,0)"/>
<path d="" fill="#000100" transform="translate(0,0)"/>
<path d="" fill="#000100" transform="translate(0,0)"/>
<path d="" fill="#000100" transform="translate(0,0)"/>
<path d="" fill="#000100" transform="translate(0,0)"/>
<path d="" fill="#000100" transform="translate(0,0)"/>
<path d="" fill="#000100" transform="translate(0,0)"/>
<path d="" fill="#000100" transform="translate(0,0)"/>
<path d="" fill="#000100" transform="translate(0,0)"/>
<path d="" fill="#000100" transform="translate(0,0)"/>
<path d="" fill="#000100" transform="translate(0,0)"/>
<path d="" fill="#000100" transform="translate(0,0)"/>
<path d="" fill="#000100" transform="translate(0,0)"/>
<path d="" fill="#000100" transform="translate(0,0)"/>
<path d="" fill="#000100" transform="translate(0,0)"/>
<path d="" fill="#000100" transform="translate(0,0)"/>
<path d="" fill="#000100" transform="translate(0,0)"/>
<path d="" fill="#007637" transform="translate(0,0)"/>
</svg>
